<?xml version="1.0" encoding="utf-8"?>
<!-- Generator: Adobe Illustrator 26.3.1, SVG Export Plug-In . SVG Version: 6.00 Build 0)  -->
<svg version="1.1" id="Camada_1" xmlns="http://www.w3.org/2000/svg" xmlns:xlink="http://www.w3.org/1999/xlink" x="0px" y="0px"
	 viewBox="0 0 48 16.6" style="enable-background:new 0 0 48 16.6;" xml:space="preserve">
<style type="text/css">
	.st0{fill:#FFFFFF;}
	.st1{fill:#EC6608;}
</style>
<path class="st0" d="M6.9,6H6.5C6.3,6,6.1,6,5.8,6H5.5C5.4,6,5.4,6,5.4,6.1l-1.8,5.3L1.8,6.1L1.7,6H1.3C1,6,0.8,6,0.5,6H0.1L0,6.1
	v0.1l2.7,7l0.1,0.1h0.3h0.7h0.4c0.1,0,0.1,0,0.1-0.1l2.7-7L6.9,6C7,6.1,7,6,6.9,6z"/>
<path class="st0" d="M10.2,5.8c-0.4,0-0.7,0-1.1,0.1C8.8,6,8.5,6.1,8.1,6.2c0,0-0.1,0-0.1,0.1c0,0.4,0.1,0.8,0.3,1.1
	c0,0.1,0.1,0.1,0.2,0.1C8.7,7.4,9,7.4,9.3,7.3c0.3,0,0.6-0.1,0.9-0.1c0.4,0,0.8,0.1,1.1,0.3c0.3,0.3,0.4,0.6,0.4,1v0.1h-0.3
	c-0.2,0-0.4,0-0.7,0c-0.4,0-0.8,0-1.1,0.1C9,8.9,8.7,9,8.4,9.2C8.1,9.4,7.9,9.7,7.7,10c-0.2,0.3-0.3,0.7-0.3,1.1
	c0,0.3,0.1,0.7,0.2,1s0.4,0.6,0.6,0.7c0.3,0.2,0.6,0.4,1,0.4c0.4,0.1,0.8,0.1,1.2,0.1c0.5,0,1,0,1.4-0.1s0.9-0.1,1.2-0.2
	c0.1,0,0.1-0.1,0.1-0.1V8.6C13.2,7.8,13,7,12.4,6.5C11.8,6,11,5.8,10.2,5.8z M11.5,10v2h-0.4c-0.4,0-0.8,0-1.1,0
	c-0.2,0-0.3-0.1-0.4-0.1c-0.1-0.1-0.2-0.2-0.3-0.3C9.1,11.4,9,11.2,9,11c0-0.3,0.1-0.6,0.4-0.8c0.4-0.2,0.8-0.3,1.2-0.3h0.5L11.5,10
	z"/>
<path class="st0" d="M17.5,11.9h-0.2c-0.2,0-0.4,0-0.6,0c-0.1,0-0.1-0.1-0.2-0.1c-0.1-0.1-0.1-0.2-0.1-0.3c0-0.2-0.1-0.4-0.1-0.6
	V3.1C16.3,3,16.2,3,16.1,3l-0.3-0.1h-0.7L14.8,3c-0.1,0-0.1,0.1-0.1,0.1v8.2c0,0.3,0,0.7,0.2,1c0.1,0.2,0.2,0.5,0.5,0.6
	c0.2,0.2,0.4,0.3,0.6,0.3c0.3,0.1,0.5,0.1,0.8,0.1c0.2,0,0.3,0,0.5,0s0.3,0,0.5-0.1c0.1,0,0.1-0.1,0.1-0.1c0-0.4,0-0.7-0.1-1.1
	C17.6,12,17.6,11.9,17.5,11.9L17.5,11.9z"/>
<path class="st0" d="M24,6.9c-0.3-0.3-0.6-0.6-1-0.8c-1-0.4-2-0.4-3,0c-0.4,0.2-0.8,0.5-1.1,0.8c-0.3,0.4-0.5,0.8-0.6,1.2
	c-0.1,0.5-0.2,1-0.2,1.5s0.1,1,0.2,1.5c0.1,0.4,0.3,0.9,0.6,1.2c0.3,0.3,0.7,0.6,1.1,0.8c0.5,0.2,1,0.3,1.5,0.3s1-0.1,1.5-0.3
	c0.4-0.2,0.7-0.4,1-0.8c0.3-0.4,0.5-0.8,0.6-1.2c0.1-0.5,0.2-1,0.2-1.5s-0.1-1-0.2-1.5C24.5,7.7,24.3,7.3,24,6.9z M23.1,9.6
	c0,0.6-0.1,1.3-0.4,1.8c-0.5,0.7-1.6,0.8-2.3,0.3c-0.1-0.1-0.2-0.2-0.3-0.3c-0.3-0.6-0.5-1.2-0.4-1.8c0-0.6,0.1-1.3,0.4-1.8
	c0.6-0.7,1.6-0.8,2.3-0.2c0.1,0.1,0.2,0.2,0.2,0.2C23,8.4,23.2,9,23.1,9.6L23.1,9.6z"/>
<path class="st0" d="M30,6.1L29.9,6h-0.2c-0.5-0.1-1.1,0.1-1.5,0.4c-0.2,0.1-0.4,0.3-0.5,0.5c0-0.1,0-0.1,0-0.2c0-0.2,0-0.4-0.1-0.5
	c0-0.1-0.1-0.1-0.1-0.1h-0.3c-0.2,0-0.4,0-0.6,0h-0.3c-0.1,0-0.1,0.1-0.1,0.1v7c0,0.1,0.1,0.1,0.1,0.1h0.4h0.7h0.4
	c0.1,0,0.1-0.1,0.1-0.1V9.7c0-0.4,0-0.8,0.1-1.1c0.1-0.2,0.2-0.5,0.4-0.6c0.2-0.2,0.3-0.3,0.5-0.3c0.2-0.1,0.4-0.1,0.7-0.1h0.2
	c0.1,0,0.1,0,0.2,0h0.1l0.1-0.1c0-0.1,0-0.2,0-0.4c0-0.1,0-0.2,0-0.4c0-0.1,0-0.2,0-0.3C30,6.3,30,6.2,30,6.1z"/>
<path class="st1" d="M36.6,6c-0.2,0-0.5,0-0.7,0h-0.3c-0.1,0-0.1,0.1-0.1,0.1v5.8c-0.3,0.1-0.7,0.1-1,0.1s-0.5,0-0.8-0.1
	c-0.2-0.1-0.4-0.2-0.5-0.3c-0.2-0.2-0.3-0.4-0.3-0.6c-0.1-0.3-0.1-0.7-0.1-1.1V6.1C32.7,6,32.6,6,32.6,6h-0.3c-0.2,0-0.5,0-0.7,0
	h-0.4C31.1,6,31,6,31,6.1l0,0V10c0,0.6,0.1,1.2,0.3,1.7c0.1,0.4,0.4,0.8,0.7,1.1c0.3,0.3,0.7,0.4,1.1,0.5c0.4,0.1,0.9,0.1,1.3,0.1
	c0.5,0,0.9,0,1.4-0.1c0.4-0.1,0.8-0.2,1.2-0.3c0.1,0,0.1-0.1,0.1-0.1V6.1C37.1,6,37,6,37,6H36.6z"/>
<path class="st1" d="M39.7,0c-3.4,0-6.4,2.1-7.7,5.2h0.4c1.7-4,6.3-5.9,10.3-4.2s5.9,6.3,4.2,10.3c-1.2,2.9-4.1,4.8-7.2,4.8h-0.1
	v-2.8l0.4,0.1c0.2,0,0.4,0,0.6,0c1.1,0.1,2.1-0.3,2.9-1.1c0.7-0.8,1.1-1.8,1-2.9c0-0.5-0.1-1.1-0.2-1.6C44.2,7.4,44,7,43.7,6.7
	s-0.6-0.5-1-0.7c-0.4-0.1-0.8-0.2-1.2-0.2c-0.3,0-0.5,0-0.8,0.1c-0.2,0.1-0.4,0.2-0.6,0.3c-0.2,0.1-0.3,0.2-0.5,0.4l-0.1,0.1V6.6
	c0-0.1,0-0.2,0-0.3c0-0.1,0-0.1,0-0.2L39.4,6h-0.3c-0.2,0-0.4,0-0.6,0h-0.3C38.1,6,38,6,38,6.1v10.2c0,0,0,0.1,0.1,0.1l0.5,0.1
	c0.4,0,0.7,0.1,1.1,0.1c4.6,0,8.3-3.7,8.3-8.3S44.3,0,39.7,0L39.7,0z M39.7,9.2c0-0.3,0-0.6,0.1-0.8S40,8,40.2,7.8
	c0.1-0.1,0.3-0.3,0.5-0.3c0.2-0.1,0.4-0.1,0.6-0.1c0.5,0,0.9,0.2,1.2,0.6c0.3,0.5,0.4,1.1,0.4,1.6c0,0.4,0,0.8-0.2,1.1
	c-0.1,0.3-0.2,0.5-0.4,0.8c-0.2,0.2-0.4,0.4-0.6,0.4C41.4,12,41.1,12,40.8,12c-0.2,0-0.5,0-0.7,0c-0.1,0-0.3-0.1-0.4-0.1
	C39.7,11.9,39.7,9.2,39.7,9.2z"/>
</svg>
